<svg width="670" height="103" viewBox="0 0 670 103" fill="none" xmlns="http://www.w3.org/2000/svg">
<path d="M655.114 3.99092L552.498 3.83911V46.7624L655.114 46.9546V3.99092ZM544.262 3.84578L435.366 3.94267V46.7624H544.262V3.84578ZM427.13 3.95013L325.68 3.83911V46.6106L427.13 46.7624V3.95013ZM379.587 53.8234V96.9736H485.696V53.8234H433.307L379.587 53.8234ZM493.932 53.8234V96.9736H601.206V53.8234H493.932Z" fill="#1B467F" fill-opacity="0.5"/>
<path d="M96.587 3.67151V46.8217H202.696V3.67151H150.307L96.587 3.67151ZM210.932 3.67151V46.8217H318.206V3.67151H210.932ZM42.6797 53.7308V75.306V96.8811L144.13 97.0329V53.8827L42.6797 53.7308ZM152.366 53.8827V97.0329H261.262V53.8827H152.366ZM269.498 53.8827V97.0329H372.114V53.8827H269.498Z" fill="#1B467F" fill-opacity="0.5"/>
</svg>
