<svg width="32" height="32" viewBox="0 0 32 32" fill="none" xmlns="http://www.w3.org/2000/svg">
<path d="M16 32C7.1088 30.2036 0 22.5775 0 14.5455V5.81818L16 0L32 5.81818V14.5455C32 22.5804 24.8912 30.2036 16 32ZM3.2 7.27273V14.5455C3.29143 17.9086 4.59258 21.1518 6.90428 23.7787C9.21599 26.4056 12.4109 28.2716 16 29.0909C19.5891 28.2716 22.784 26.4056 25.0957 23.7787C27.4074 21.1518 28.7086 17.9086 28.8 14.5455V7.27273L16 2.90909L3.2 7.27273Z" fill="#142E50"/>
<path d="M20.5716 13.657V14.157H21.0716C21.4372 14.157 21.839 14.3384 22.1574 14.6648C22.4732 14.9887 22.6716 15.4201 22.6716 15.867V21.817C22.6716 22.157 22.4922 22.5412 22.1549 22.8516C21.8213 23.1585 21.3704 23.357 20.8966 23.357H11.2716C10.906 23.357 10.5042 23.1756 10.1858 22.8492C9.87 22.5253 9.6716 22.0939 9.6716 21.647V15.697C9.6716 15.3548 9.85314 14.967 10.1762 14.6531C10.4984 14.3402 10.9042 14.157 11.2716 14.157H11.7716V13.657V11.107C11.7716 10.0974 12.2911 9.16623 13.1228 8.47373C13.9557 7.7802 15.0686 7.35699 16.1716 7.35699C17.2746 7.35699 18.3875 7.7802 19.2204 8.47373C20.0521 9.16623 20.5716 10.0974 20.5716 11.107V13.657ZM18.3115 14.157H18.8115V13.657V11.107V11.0456L18.7966 10.9861C18.6335 10.3312 18.4006 9.82264 17.8685 9.56367C17.6264 9.44582 17.3602 9.39972 17.093 9.37815C16.8309 9.35698 16.5246 9.35699 16.188 9.35699H16.1716H16.1573C15.8187 9.35699 15.5028 9.35699 15.2261 9.37796C14.9451 9.39925 14.6663 9.44423 14.4117 9.55426C13.843 9.79997 13.5557 10.2937 13.3918 10.9929L13.3786 11.0492V11.107V13.657V14.157H13.8786H18.3115Z" fill="#C38A19" stroke="#142E50"/>
</svg>
