<svg width="32" height="29" viewBox="0 0 32 29" fill="none" xmlns="http://www.w3.org/2000/svg">
<path d="M4 25.2L12 18M28 12C28 13.1031 27.7586 14.1954 27.2895 15.2145C26.8205 16.2337 26.133 17.1597 25.2663 17.9397C24.3997 18.7197 23.3708 19.3384 22.2384 19.7606C21.106 20.1827 19.8923 20.4 18.6667 20.4C17.441 20.4 16.2273 20.1827 15.095 19.7606C13.9626 19.3384 12.9337 18.7197 12.067 17.9397C11.2003 17.1597 10.5128 16.2337 10.0438 15.2145C9.57475 14.1954 9.33334 13.1031 9.33334 12C9.33334 10.8969 9.57475 9.80457 10.0438 8.78543C10.5128 7.7663 11.2003 6.84029 12.067 6.06028C12.9337 5.28027 13.9626 4.66153 15.095 4.23939C16.2273 3.81725 17.441 3.59998 18.6667 3.59998C19.8923 3.59998 21.106 3.81725 22.2384 4.23939C23.3708 4.66153 24.3997 5.28027 25.2663 6.06028C26.133 6.84029 26.8205 7.7663 27.2895 8.78543C27.7586 9.80457 28 10.8969 28 12Z" stroke="#142E50" stroke-width="2" stroke-linecap="round" stroke-linejoin="round"/>
</svg>
