<svg width="31" height="26" viewBox="0 0 31 26" fill="none" xmlns="http://www.w3.org/2000/svg">
<path fill-rule="evenodd" clip-rule="evenodd" d="M3.1 0C2.27783 0 1.48933 0.34241 0.907969 0.951903C0.326606 1.5614 0 2.38805 0 3.25V22.75C0 23.612 0.326606 24.4386 0.907969 25.0481C1.48933 25.6576 2.27783 26 3.1 26H27.9C28.7222 26 29.5107 25.6576 30.092 25.0481C30.6734 24.4386 31 23.612 31 22.75V3.25C31 2.38805 30.6734 1.5614 30.092 0.951903C29.5107 0.34241 28.7222 0 27.9 0H3.1ZM18.6 8.125C18.6 7.69402 18.7633 7.2807 19.054 6.97595C19.3447 6.67121 19.7389 6.5 20.15 6.5H24.8C25.2111 6.5 25.6053 6.67121 25.896 6.97595C26.1867 7.2807 26.35 7.69402 26.35 8.125C26.35 8.55598 26.1867 8.9693 25.896 9.27405C25.6053 9.57879 25.2111 9.75 24.8 9.75H20.15C19.7389 9.75 19.3447 9.57879 19.054 9.27405C18.7633 8.9693 18.6 8.55598 18.6 8.125ZM18.6 13C18.6 12.569 18.7633 12.1557 19.054 11.851C19.3447 11.5462 19.7389 11.375 20.15 11.375H24.8C25.2111 11.375 25.6053 11.5462 25.896 11.851C26.1867 12.1557 26.35 12.569 26.35 13C26.35 13.431 26.1867 13.8443 25.896 14.149C25.6053 14.4538 25.2111 14.625 24.8 14.625H20.15C19.7389 14.625 19.3447 14.4538 19.054 14.149C18.7633 13.8443 18.6 13.431 18.6 13ZM18.6 17.875C18.6 17.444 18.7633 17.0307 19.054 16.726C19.3447 16.4212 19.7389 16.25 20.15 16.25H24.8C25.2111 16.25 25.6053 16.4212 25.896 16.726C26.1867 17.0307 26.35 17.444 26.35 17.875C26.35 18.306 26.1867 18.7193 25.896 19.024C25.6053 19.3288 25.2111 19.5 24.8 19.5H20.15C19.7389 19.5 19.3447 19.3288 19.054 19.024C18.7633 18.7193 18.6 18.306 18.6 17.875ZM6.2 9.75C6.2 8.45707 6.68991 7.21709 7.56195 6.30285C8.434 5.38861 9.61674 4.875 10.85 4.875C12.0833 4.875 13.266 5.38861 14.138 6.30285C15.0101 7.21709 15.5 8.45707 15.5 9.75C15.5 11.0429 15.0101 12.2829 14.138 13.1971C13.266 14.1114 12.0833 14.625 10.85 14.625C9.61674 14.625 8.434 14.1114 7.56195 13.1971C6.68991 12.2829 6.2 11.0429 6.2 9.75ZM9.2101 16.25C8.23395 16.2496 7.28246 16.5713 6.49043 17.1695C5.69841 17.7677 5.10604 18.6121 4.79725 19.5829L4.72905 19.799L4.72285 19.8185C4.65775 20.0232 4.6376 20.0899 4.65775 20.1354C4.66705 20.1565 4.68875 20.1728 4.71665 20.1987C4.76625 20.2394 4.84065 20.3027 4.94295 20.4506C5.08657 20.6594 5.27542 20.8294 5.49397 20.9466C5.71252 21.0638 5.9545 21.125 6.2 21.125H15.5C15.7455 21.125 15.9875 21.0638 16.206 20.9466C16.4246 20.8294 16.6134 20.6594 16.757 20.4506C16.8198 20.3551 16.8961 20.2701 16.9833 20.1987C17.0128 20.1728 17.0314 20.1565 17.0422 20.1337C17.0639 20.0899 17.0422 20.0232 16.9771 19.8185L16.9709 19.799L16.9028 19.5829C16.594 18.6123 16.0019 17.7682 15.2102 17.17C14.4185 16.5718 13.4673 16.25 12.4914 16.25H9.2101Z" fill="#142E50"/>
</svg>
