<svg width="616" height="103" viewBox="0 0 616 103" fill="none" xmlns="http://www.w3.org/2000/svg">
<g clip-path="url(#clip0_102_18)">
<path d="M611.114 3.99092L508.498 3.83911V46.7624L611.114 46.9546V3.99092ZM500.262 3.84578L391.366 3.94267V46.7624H500.262V3.84578ZM383.13 3.95013L281.68 3.83911V46.6106L383.13 46.7624V3.95013ZM335.587 53.8234V96.9736H441.696V53.8234H389.307L335.587 53.8234ZM449.932 53.8234V96.9736H557.206V53.8234H449.932Z" fill="#1B467F" fill-opacity="0.5"/>
</g>
<g clip-path="url(#clip1_102_18)">
<path d="M52.587 3.67151V46.8217H158.696V3.67151H106.307L52.587 3.67151ZM166.932 3.67151V46.8217H274.206V3.67151H166.932ZM-1.32031 53.7308V75.306V96.8811L100.13 97.0329V53.8827L-1.32031 53.7308ZM108.366 53.8827V97.0329H217.262V53.8827H108.366ZM225.498 53.8827V97.0329H328.114V53.8827H225.498Z" fill="#1B467F" fill-opacity="0.5"/>
</g>
<defs>
<clipPath id="clip0_102_18">
<rect width="355.809" height="92" fill="white" transform="translate(260.191 4)"/>
</clipPath>
<clipPath id="clip1_102_18">
<rect width="355.809" height="103" fill="white"/>
</clipPath>
</defs>
</svg>
