<svg width="34" height="34" viewBox="0 0 34 34" fill="none" xmlns="http://www.w3.org/2000/svg">
<path d="M17 32C25.2843 32 32 25.2843 32 17C32 8.71573 25.2843 2 17 2C8.71573 2 2 8.71573 2 17C2 25.2843 8.71573 32 17 32Z" stroke="#142E50" stroke-width="3" stroke-linecap="round" stroke-linejoin="round"/>
<path d="M23 11H14C13.2044 11 12.4413 11.3161 11.8787 11.8787C11.3161 12.4413 11 13.2044 11 14C11 14.7956 11.3161 15.5587 11.8787 16.1213C12.4413 16.6839 13.2044 17 14 17H20C20.7956 17 21.5587 17.3161 22.1213 17.8787C22.6839 18.4413 23 19.2044 23 20C23 20.7956 22.6839 21.5587 22.1213 22.1213C21.5587 22.6839 20.7956 23 20 23H11M17 26V8V26Z" fill="#C38A19"/>
<path d="M23 11H14C13.2044 11 12.4413 11.3161 11.8787 11.8787C11.3161 12.4413 11 13.2044 11 14C11 14.7956 11.3161 15.5587 11.8787 16.1213C12.4413 16.6839 13.2044 17 14 17H20C20.7956 17 21.5587 17.3161 22.1213 17.8787C22.6839 18.4413 23 19.2044 23 20C23 20.7956 22.6839 21.5587 22.1213 22.1213C21.5587 22.6839 20.7956 23 20 23H11M17 26V8" stroke="#142E50" stroke-width="3" stroke-linecap="round"/>
</svg>
