<svg width="30" height="30" viewBox="0 0 30 30" fill="none" xmlns="http://www.w3.org/2000/svg">
<path d="M10.5858 3.90955C10.7596 3.90955 10.9316 3.94329 11.0922 4.00885C11.2527 4.07441 11.3986 4.1705 11.5215 4.29163C11.6443 4.41277 11.7418 4.55658 11.8083 4.71485C11.8748 4.87312 11.909 5.04276 11.909 5.21407C11.909 5.38538 11.8748 5.55502 11.8083 5.71329C11.7418 5.87156 11.6443 6.01537 11.5215 6.13651C11.3986 6.25764 11.2527 6.35373 11.0922 6.41929C10.9316 6.48485 10.7596 6.51859 10.5858 6.51859H5.2929C4.59101 6.51859 3.91788 6.79347 3.42157 7.28276C2.92527 7.77205 2.64645 8.43567 2.64645 9.12764V24.7819C2.64645 25.4739 2.92527 26.1375 3.42157 26.6268C3.91788 27.1161 4.59101 27.391 5.2929 27.391H21.1716C21.8735 27.391 22.5466 27.1161 23.0429 26.6268C23.5392 26.1375 23.818 25.4739 23.818 24.7819V19.5638C23.818 19.2178 23.9574 18.886 24.2056 18.6414C24.4538 18.3967 24.7903 18.2593 25.1413 18.2593C25.4922 18.2593 25.8288 18.3967 26.0769 18.6414C26.3251 18.886 26.4645 19.2178 26.4645 19.5638V24.7819C26.4645 26.1658 25.9068 27.4931 24.9142 28.4717C23.9216 29.4502 22.5753 30 21.1716 30H5.2929C3.88913 30 2.54286 29.4502 1.55025 28.4717C0.557643 27.4931 0 26.1658 0 24.7819V9.12764C0 7.74371 0.557643 6.41647 1.55025 5.43789C2.54286 4.45931 3.88913 3.90955 5.2929 3.90955H10.5858Z" fill="#142E50"/>
<path d="M28.1572 1.05721L28.157 1.05699C27.3301 0.240819 25.7386 0.29201 24.5945 1.41855L28.1572 1.05721ZM28.1572 1.05721L28.9377 1.82666L28.1572 1.05721ZM8.61829 17.1703L24.5943 1.41874L28.9379 1.82688C29.7593 2.63792 29.713 4.19491 28.5716 5.31905L28.5714 5.31923L20.5215 13.2553L12.5499 21.1143L7.43696 22.9582L7.43619 22.9585C7.01142 23.1124 6.73074 22.9027 6.67407 22.6438C6.6496 22.5152 6.66178 22.3824 6.70953 22.2599L6.70957 22.26L6.71183 22.2539L8.61829 17.1703Z" fill="#C38A19" stroke="#142E50"/>
</svg>
