<svg width="379" height="88" viewBox="0 0 379 88" fill="none" xmlns="http://www.w3.org/2000/svg">
<path d="M128.41 71.6582L137.092 23.5674C137.137 23.3851 137.251 23.2939 137.434 23.2939H147.585C147.767 23.2939 147.881 23.3851 147.927 23.5674L156.267 71.6582C156.289 71.8861 156.198 72 155.993 72H148.234C148.007 72 147.881 71.8861 147.858 71.6582L147.106 66.5312H137.57L136.818 71.6582C136.796 71.8861 136.682 72 136.477 72H128.684C128.501 72 128.41 71.8861 128.41 71.6582ZM142.116 39.3926L138.972 59.0459H145.705L142.834 39.3926L142.424 36.7949L142.116 39.3926ZM168.845 72H160.915C160.733 72 160.642 71.8861 160.642 71.6582L160.778 23.5674C160.778 23.3851 160.869 23.2939 161.052 23.2939H169.597C169.779 23.2939 169.938 23.3851 170.075 23.5674L176.467 32.7959L182.824 23.5674C182.961 23.3851 183.132 23.2939 183.337 23.2939H191.916C192.121 23.2939 192.224 23.3851 192.224 23.5674L192.36 71.6582C192.36 71.8861 192.269 72 192.087 72H184.157C183.975 72 183.884 71.8861 183.884 71.6582L183.815 35.9404L176.467 46.6045L169.187 35.9404L169.118 71.6582C169.118 71.8861 169.027 72 168.845 72ZM195.881 71.6582L204.562 23.5674C204.608 23.3851 204.722 23.2939 204.904 23.2939H215.056C215.238 23.2939 215.352 23.3851 215.397 23.5674L223.737 71.6582C223.76 71.8861 223.669 72 223.464 72H215.705C215.477 72 215.352 71.8861 215.329 71.6582L214.577 66.5312H205.041L204.289 71.6582C204.266 71.8861 204.152 72 203.947 72H196.154C195.972 72 195.881 71.8861 195.881 71.6582ZM209.587 39.3926L206.442 59.0459H213.176L210.305 39.3926L209.895 36.7949L209.587 39.3926ZM236.315 72H228.454C228.226 72 228.112 71.8861 228.112 71.6582L228.249 23.5674C228.249 23.3851 228.34 23.2939 228.522 23.2939H250.944C251.172 23.2939 251.286 23.3851 251.286 23.5674V31.4629C251.286 31.6452 251.195 31.7363 251.013 31.7363H236.657V42.6055H251.013C251.195 42.6055 251.286 42.7194 251.286 42.9473L251.354 50.877C251.354 51.0592 251.241 51.1504 251.013 51.1504H236.657V71.6582C236.657 71.8861 236.543 72 236.315 72ZM270.529 72.6836C268.046 72.6836 265.756 72.0456 263.659 70.7695C261.586 69.4935 259.911 67.7959 258.635 65.6768C257.382 63.5348 256.755 61.1878 256.755 58.6357L256.823 36.4531C256.823 33.8555 257.45 31.5199 258.703 29.4463C259.934 27.3499 261.597 25.6751 263.693 24.4219C265.79 23.1458 268.068 22.5078 270.529 22.5078C273.081 22.5078 275.371 23.1344 277.399 24.3877C279.45 25.641 281.091 27.3271 282.321 29.4463C283.575 31.5426 284.201 33.8783 284.201 36.4531L284.27 58.6357C284.27 61.1878 283.654 63.5234 282.424 65.6426C281.171 67.7845 279.507 69.4935 277.434 70.7695C275.36 72.0456 273.059 72.6836 270.529 72.6836ZM270.529 64.2412C271.942 64.2412 273.173 63.6715 274.221 62.5322C275.269 61.3701 275.793 60.0713 275.793 58.6357L275.725 36.4531C275.725 34.9036 275.235 33.5934 274.255 32.5225C273.275 31.4515 272.033 30.916 270.529 30.916C269.094 30.916 267.863 31.4401 266.838 32.4883C265.812 33.5365 265.3 34.8581 265.3 36.4531V58.6357C265.3 60.1624 265.812 61.484 266.838 62.6006C267.863 63.6943 269.094 64.2412 270.529 64.2412ZM297.771 72H289.841C289.659 72 289.567 71.8861 289.567 71.6582L289.704 23.5674C289.704 23.3851 289.795 23.2939 289.978 23.2939H304.128C306.657 23.2939 308.981 23.9092 311.101 25.1396C313.22 26.3701 314.906 28.0221 316.159 30.0957C317.435 32.1693 318.073 34.5163 318.073 37.1367C318.073 38.8457 317.811 40.3952 317.287 41.7852C316.763 43.1751 316.148 44.3486 315.441 45.3057C314.758 46.2627 314.131 46.9691 313.562 47.4248C316.091 50.2275 317.355 53.5202 317.355 57.3027L317.424 71.6582C317.424 71.8861 317.31 72 317.082 72H309.152C308.97 72 308.879 71.9316 308.879 71.7949V57.3027C308.879 55.6165 308.286 54.1582 307.102 52.9277C305.917 51.6973 304.458 51.082 302.727 51.082H298.112L298.044 71.6582C298.044 71.8861 297.953 72 297.771 72ZM304.128 31.668H298.112V42.6738H304.128C305.563 42.6738 306.84 42.1383 307.956 41.0674C309.095 39.9964 309.665 38.6862 309.665 37.1367C309.665 35.6556 309.118 34.3796 308.024 33.3086C306.931 32.2148 305.632 31.668 304.128 31.668ZM336.838 72H328.942C328.737 72 328.635 71.8861 328.635 71.6582V31.7363H319.543C319.315 31.7363 319.201 31.6224 319.201 31.3945L319.27 23.5674C319.27 23.3851 319.361 23.2939 319.543 23.2939H346.135C346.385 23.2939 346.511 23.3851 346.511 23.5674V31.3945C346.511 31.6224 346.42 31.7363 346.237 31.7363H337.043L337.111 71.6582C337.111 71.8861 337.02 72 336.838 72ZM372.829 72H350.202C350.02 72 349.929 71.8861 349.929 71.6582L349.997 23.5674C349.997 23.3851 350.088 23.2939 350.271 23.2939H372.761C372.943 23.2939 373.034 23.4079 373.034 23.6357V31.4629C373.034 31.6452 372.943 31.7363 372.761 31.7363H358.405V42.6738H372.761C372.943 42.6738 373.034 42.765 373.034 42.9473L373.103 50.877C373.103 51.0592 373.011 51.1504 372.829 51.1504H358.405V63.3867H372.829C373.011 63.3867 373.103 63.5007 373.103 63.7285V71.7266C373.103 71.9089 373.011 72 372.829 72Z" fill="#C38A19"/>
<path d="M11.134 87.5C7.37415 87.3254 3.73686 85.6483 1.84713 83.3096C0.908538 82.1481 0.415011 80.8439 0.512076 79.4822C0.609141 78.1205 1.30219 76.6269 2.88007 75.0981C10.4216 67.7908 22.4501 61.5872 33.5987 56.9378C44.7333 52.2941 54.9287 49.2254 58.7552 48.1684C63.384 46.8897 69.185 48.0263 75.383 51.2465C81.5702 54.4611 88.0922 59.7223 94.1244 66.5821C98.8995 72.0124 100.223 77.3107 99.7266 81.2001C99.2241 85.1365 96.9167 87.5 94.4998 87.5H11.134Z" fill="#142E50" stroke="#C38A19"/>
<path d="M76.5196 30.8158C81.0612 27.9829 126.111 12.6548 126.111 12.6548C126.111 12.6548 135.099 9.69481 137.008 13.5046C139.096 17.6698 133.128 21.7123 129.541 22.6111C125.953 23.5098 84.6021 31.9797 81.9218 36.4326C79.2415 40.8855 94.3594 41.119 105.258 48.4502L105.27 48.4583C106.544 49.3153 108.913 50.9082 107.204 56.2627C105.37 62.0097 93.8455 64.4646 89.3008 65.6425C84.7561 66.8204 60.8706 69.1532 60.8706 69.1532L43.9782 71.038C43.8671 71.0502 95.6566 56.8316 98.1274 55.0613C100.598 53.2909 99.3546 51.1028 96.7212 50.0674C83.3086 44.7939 88.0488 47.5459 79.6496 43C76.1724 41.1181 74.6558 38.9049 74.6558 38.9049C74.6558 38.9049 71.978 33.6487 76.5196 30.8158Z" fill="#C38A19"/>
<path d="M76.5196 30.8158C81.0612 27.9829 126.111 12.6548 126.111 12.6548C126.111 12.6548 135.099 9.69481 137.008 13.5046C139.096 17.6698 133.128 21.7123 129.541 22.6111C125.953 23.5098 84.6021 31.9797 81.9218 36.4326C79.2415 40.8855 94.3594 41.119 105.258 48.4502L105.27 48.4583C106.544 49.3153 108.913 50.9082 107.204 56.2627C105.37 62.0097 93.8455 64.4646 89.3008 65.6425C84.7561 66.8204 60.8706 69.1532 60.8706 69.1532L43.9782 71.038C43.8671 71.0502 95.6566 56.8316 98.1274 55.0613C100.598 53.2909 99.3546 51.1028 96.7212 50.0674C83.3086 44.7939 88.0488 47.5459 79.6496 43C76.1724 41.1181 74.6558 38.9049 74.6558 38.9049C74.6558 38.9049 71.978 33.6487 76.5196 30.8158Z" stroke="#132C4C"/>
<path d="M76.5196 30.8158C81.0612 27.9829 126.111 12.6548 126.111 12.6548C126.111 12.6548 135.099 9.69481 137.008 13.5046C139.096 17.6698 133.128 21.7123 129.541 22.6111C125.953 23.5098 84.6021 31.9797 81.9218 36.4326C79.2415 40.8855 94.3594 41.119 105.258 48.4502L105.27 48.4583C106.544 49.3153 108.913 50.9082 107.204 56.2627C105.37 62.0097 93.8455 64.4646 89.3008 65.6425C84.7561 66.8204 60.8706 69.1532 60.8706 69.1532L43.9782 71.038C43.8671 71.0502 95.6566 56.8316 98.1274 55.0613C100.598 53.2909 99.3546 51.1028 96.7212 50.0674C83.3086 44.7939 88.0488 47.5459 79.6496 43C76.1724 41.1181 74.6558 38.9049 74.6558 38.9049C74.6558 38.9049 71.978 33.6487 76.5196 30.8158Z" stroke="black" stroke-opacity="0.2"/>
</svg>
