<svg width="53" height="53" viewBox="0 0 53 53" fill="none" xmlns="http://www.w3.org/2000/svg">
<path d="M26.88 7.5C24.4417 7.5 22.1033 8.49681 20.3792 10.2711C18.6551 12.0455 17.6865 14.452 17.6865 16.9613C17.6865 19.4705 18.6551 21.877 20.3792 23.6514C22.1033 25.4257 24.4417 26.4225 26.88 26.4225C29.3183 26.4225 31.6567 25.4257 33.3808 23.6514C35.105 21.877 36.0736 19.4705 36.0736 16.9613C36.0736 14.452 35.105 12.0455 33.3808 10.2711C31.6567 8.49681 29.3183 7.5 26.88 7.5ZM17.2942 29.2539C14.8559 29.2539 12.5175 30.2507 10.7934 32.025C9.06926 33.7993 8.10066 36.2058 8.10066 38.7151V41.7125C8.10066 43.6148 4.50004 41.7125 12.2918 47.4321C20.0836 53.1517 34.1007 52.5 39.1154 49.4359C44.13 46.3719 44.6222 44.9238 45.2014 44.223C45.7805 43.5221 46.0992 42.6325 46.1007 41.7125V38.7151C46.1007 36.2058 45.1321 33.7993 43.4079 32.025C41.6838 30.2507 39.3454 29.2539 36.9071 29.2539H36.0736C35.6159 29.2556 35.1714 29.3279 34.7399 29.4709L32.6168 30.1849C29.0325 31.3891 25.1689 31.3891 21.5845 30.1849L19.4614 29.4709C19.0311 29.3288 18.5821 29.2556 18.1302 29.2539H17.2942Z" fill="#C38A19"/>
<path d="M50.9231 26.6153C50.9231 40.1251 39.9713 51.0769 26.4615 51.0769C12.9518 51.0769 2 40.1251 2 26.6153C2 13.1056 12.9518 2.15381 26.4615 2.15381C39.9713 2.15381 50.9231 13.1056 50.9231 26.6153Z" stroke="#C38A19" stroke-width="3"/>
</svg>
