<svg width="30" height="30" viewBox="0 0 30 30" fill="none" xmlns="http://www.w3.org/2000/svg">
<path d="M26.5809 12.2304C25.9602 10.0023 24.2464 8.22948 21.9649 8.22948H14.2261H13.2261V9.22948V14.572C13.2261 15.5854 12.608 16.0004 12.2914 16.0004C11.9748 16.0004 11.3567 15.5854 11.3567 14.572V7.54948L11.3722 7.37493C11.5377 5.50481 12.7423 4.40129 13.8392 4.40129H19.2563C19.3335 4.40129 19.4211 4.40832 19.5197 4.42206L20.0845 4.50084L20.4399 4.05477L22.3795 1.62028C22.7405 1.16715 23.1567 1 23.5127 1C23.8687 1 24.2849 1.16715 24.6459 1.62028L24.6463 1.62077L28.4234 6.35569L26.5809 12.2304ZM26.5809 12.2304L28.4234 9.91771C29.1921 8.95294 29.1922 7.32117 28.4238 6.35618L26.5809 12.2304ZM16.7739 14.572V12.1783H21.578C22.3211 12.1783 23.282 13.0255 23.2866 14.5671V14.5885C23.2822 15.9221 22.5341 16.7818 21.8631 16.9457L20.3815 17.3075L21.3041 18.522C21.5597 18.8586 21.7388 19.347 21.7388 19.9206C21.7388 21.2011 20.9466 21.8347 20.4172 21.8347H20.2866H18.9797L19.3214 23.0961C19.3822 23.3205 19.4172 23.5605 19.4172 23.806C19.4172 25.0865 18.6249 25.7201 18.0955 25.7201H10.3699L10.361 25.7195L10.3593 25.7194C10.3494 25.7187 10.3308 25.7174 10.311 25.7164C10.289 25.7152 10.2598 25.7141 10.2261 25.7141H9.74425L9.44399 26.0909L7.62053 28.3797C7.25952 28.8329 6.84332 29 6.4873 29C6.13129 29 5.71509 28.8329 5.35407 28.3797L1.57657 23.6382C0.807811 22.6733 0.807811 21.0411 1.57657 20.0762L5.11707 15.6322L5.25915 15.4539L5.30988 15.2316L6.10795 11.7347L6.10834 11.733C6.39607 10.4618 7.03634 9.49844 7.80895 8.91832V14.572C7.80895 17.3166 9.61404 19.9431 12.2914 19.9431C14.9688 19.9431 16.7739 17.3166 16.7739 14.572Z" fill="#FFB729" stroke="#142E50" stroke-width="2"/>
</svg>
