<svg width="28" height="28" viewBox="0 0 28 28" fill="none" xmlns="http://www.w3.org/2000/svg">
<path d="M14.874 27.2336L14.8577 27.2364L14.7531 27.2846L14.7236 27.2902L14.703 27.2846L14.5984 27.2364C14.5827 27.2318 14.5709 27.2341 14.563 27.2433L14.5571 27.2571L14.5321 27.847L14.5394 27.8746L14.5542 27.8925L14.7074 27.9945L14.7295 28L14.7472 27.9945L14.9005 27.8925L14.9182 27.8705L14.9241 27.847L14.899 27.2585C14.8951 27.2438 14.8867 27.2355 14.874 27.2336ZM15.2645 27.0779L15.2453 27.0807L14.9727 27.2088L14.958 27.2226L14.9535 27.2378L14.9801 27.8305L14.9874 27.847L14.9992 27.8567L15.2954 27.9849C15.3141 27.9894 15.3283 27.9858 15.3382 27.9738L15.3441 27.9545L15.294 27.1082C15.289 27.0917 15.2792 27.0816 15.2645 27.0779ZM14.2108 27.0807C14.2043 27.077 14.1965 27.0758 14.1891 27.0773C14.1817 27.0789 14.1752 27.083 14.171 27.0889L14.1622 27.1082L14.1121 27.9545C14.113 27.9711 14.1214 27.9821 14.1371 27.9876L14.1592 27.9849L14.4554 27.8567L14.4702 27.8456L14.4761 27.8305L14.5011 27.2378L14.4967 27.2212L14.482 27.2075L14.2108 27.0807Z" fill="#142E50"/>
<path d="M25.7895 19.297C26.3572 19.2973 26.903 19.5018 27.3138 19.8682C27.7247 20.2347 27.9691 20.7349 27.9964 21.2652C28.0236 21.7956 27.8317 22.3154 27.4604 22.717C27.089 23.1186 26.5667 23.3712 26.0017 23.4225L25.7895 23.4321H2.21053C1.64284 23.4319 1.09702 23.2273 0.686167 22.8609C0.275316 22.4945 0.0309296 21.9943 0.00364846 21.4639C-0.0236327 20.9336 0.168283 20.4137 0.539627 20.0121C0.910971 19.6105 1.43328 19.3579 1.99832 19.3067L2.21053 19.297H25.7895ZM25.7895 9.64852C26.3757 9.64852 26.938 9.86635 27.3526 10.2541C27.7671 10.6418 28 11.1677 28 11.7161C28 12.2644 27.7671 12.7903 27.3526 13.178C26.938 13.5658 26.3757 13.7836 25.7895 13.7836H2.21053C1.62426 13.7836 1.062 13.5658 0.647448 13.178C0.232894 12.7903 0 12.2644 0 11.7161C0 11.1677 0.232894 10.6418 0.647448 10.2541C1.062 9.86635 1.62426 9.64852 2.21053 9.64852H25.7895ZM25.7895 0C26.3757 0 26.938 0.21783 27.3526 0.605568C27.7671 0.993307 28 1.51919 28 2.06754C28 2.61589 27.7671 3.14177 27.3526 3.52951C26.938 3.91725 26.3757 4.13508 25.7895 4.13508H2.21053C1.62426 4.13508 1.062 3.91725 0.647448 3.52951C0.232894 3.14177 0 2.61589 0 2.06754C0 1.51919 0.232894 0.993307 0.647448 0.605568C1.062 0.21783 1.62426 0 2.21053 0H25.7895Z" fill="#142E50"/>
</svg>
