<svg width="20" height="20" viewBox="0 0 20 20" fill="none" xmlns="http://www.w3.org/2000/svg">
<path fill-rule="evenodd" clip-rule="evenodd" d="M0 5.67876V7.64226C0.000109663 7.75957 0.0275065 7.8749 0.0795837 7.97727C0.131661 8.07964 0.206686 8.16566 0.297521 8.22712C0.388355 8.28859 0.491978 8.32347 0.598528 8.32843C0.705078 8.3334 0.811012 8.3083 0.90625 8.25551L2.01375 7.64226L2.485 7.38101L2.5 7.37276L4.255 6.39926L4.3425 6.34976L5.17 5.89188L5.92375 5.47388C6.0271 5.41659 6.11396 5.32885 6.17464 5.22046C6.23533 5.11206 6.26746 4.98725 6.26746 4.85995C6.26746 4.73264 6.23533 4.60784 6.17464 4.49944C6.11396 4.39104 6.0271 4.3033 5.92375 4.24601L5.17 3.82663L4.3425 3.36876L4.255 3.31926L2.5 2.34576L2.485 2.33888L2.01375 2.07763L0.90625 1.46301C0.811012 1.41022 0.705078 1.38511 0.598528 1.39008C0.491978 1.39505 0.388355 1.42993 0.297521 1.49139C0.206686 1.55286 0.131661 1.63887 0.0795837 1.74125C0.0275065 1.84362 0.000109663 1.95895 0 2.07626L0 5.67876ZM9.0625 2.75001C8.81386 2.75001 8.5754 2.85866 8.39959 3.05205C8.22377 3.24545 8.125 3.50775 8.125 3.78126C8.125 4.05476 8.22377 4.31707 8.39959 4.51046C8.5754 4.70386 8.81386 4.81251 9.0625 4.81251H17.8125C17.8954 4.81251 17.9749 4.84873 18.0335 4.91319C18.0921 4.97766 18.125 5.06509 18.125 5.15626V16.8438C18.125 16.9349 18.0921 17.0224 18.0335 17.0868C17.9749 17.1513 17.8954 17.1875 17.8125 17.1875H5.9375C5.85462 17.1875 5.77513 17.1513 5.71653 17.0868C5.65792 17.0224 5.625 16.9349 5.625 16.8438V9.28676C5.625 9.01325 5.52623 8.75095 5.35041 8.55755C5.1746 8.36416 4.93614 8.25551 4.6875 8.25551C4.43886 8.25551 4.2004 8.36416 4.02459 8.55755C3.84877 8.75095 3.75 9.01325 3.75 9.28676V16.8438C3.75 18.172 4.73 19.25 5.9375 19.25H17.8125C18.3927 19.25 18.9491 18.9965 19.3593 18.5452C19.7695 18.094 20 17.4819 20 16.8438V5.15626C20 4.51808 19.7695 3.90604 19.3593 3.45478C18.9491 3.00352 18.3927 2.75001 17.8125 2.75001H9.0625ZM8.4375 8.25001C8.18886 8.25001 7.9504 8.35866 7.77459 8.55205C7.59877 8.74545 7.5 9.00775 7.5 9.28126C7.5 9.55476 7.59877 9.81707 7.77459 10.0105C7.9504 10.2039 8.18886 10.3125 8.4375 10.3125H15.3125C15.5611 10.3125 15.7996 10.2039 15.9754 10.0105C16.1512 9.81707 16.25 9.55476 16.25 9.28126C16.25 9.00775 16.1512 8.74545 15.9754 8.55205C15.7996 8.35866 15.5611 8.25001 15.3125 8.25001H8.4375ZM7.5 12.7188C7.5 12.4453 7.59877 12.183 7.77459 11.9896C7.9504 11.7962 8.18886 11.6875 8.4375 11.6875H12.8125C13.0611 11.6875 13.2996 11.7962 13.4754 11.9896C13.6512 12.183 13.75 12.4453 13.75 12.7188C13.75 12.9923 13.6512 13.2546 13.4754 13.448C13.2996 13.6414 13.0611 13.75 12.8125 13.75H8.4375C8.18886 13.75 7.9504 13.6414 7.77459 13.448C7.59877 13.2546 7.5 12.9923 7.5 12.7188Z" fill="black"/>
</svg>
