<svg width="19" height="19" viewBox="0 0 19 19" fill="none" xmlns="http://www.w3.org/2000/svg">
<path d="M16.3281 2.07812H2.67188C2.34346 2.07812 2.07812 2.34346 2.07812 2.67188V16.3281C2.07812 16.6565 2.34346 16.9219 2.67188 16.9219H9.35156C9.4332 16.9219 9.5 16.8551 9.5 16.7734V15.7344C9.5 15.6527 9.4332 15.5859 9.35156 15.5859H3.41406V3.41406H15.5859V9.35156C15.5859 9.4332 15.6527 9.5 15.7344 9.5H16.7734C16.8551 9.5 16.9219 9.4332 16.9219 9.35156V2.67188C16.9219 2.34346 16.6565 2.07812 16.3281 2.07812ZM12.1218 11.1217L13.0903 10.1531C13.11 10.1334 13.1236 10.1086 13.1299 10.0815C13.1361 10.0544 13.1345 10.026 13.1255 9.99975C13.1164 9.97346 13.1001 9.95024 13.0785 9.93275C13.0568 9.91525 13.0307 9.90418 13.0031 9.90078L9.67441 9.51113C9.57979 9.5 9.49814 9.57979 9.50928 9.67627L9.89893 13.005C9.91377 13.1274 10.0641 13.1794 10.1513 13.0922L11.1235 12.1199L15.8772 16.8736C15.9348 16.9312 16.0294 16.9312 16.0869 16.8736L16.8736 16.0869C16.9312 16.0294 16.9312 15.9348 16.8736 15.8772L12.1218 11.1217Z" fill="black"/>
</svg>
