<svg width="31" height="30" viewBox="0 0 31 30" fill="none" xmlns="http://www.w3.org/2000/svg">
<path d="M12.6849 18.4429C13.5282 17.6131 14.6737 17.1454 15.8698 17.1454C17.0658 17.1454 18.2113 17.6131 19.0546 18.4429C19.8976 19.2725 20.3698 20.3959 20.3698 21.5656C20.3698 22.7352 19.8976 23.8586 19.0546 24.6882C18.2113 25.518 17.0658 25.9857 15.8698 25.9857C14.6737 25.9857 13.5282 25.518 12.6849 24.6882C11.8419 23.8586 11.3698 22.7352 11.3698 21.5656C11.3698 20.3959 11.8419 19.2725 12.6849 18.4429ZM14.0038 19.7181C13.5073 20.2067 13.2269 20.8711 13.2269 21.5656C13.2269 22.26 13.5073 22.9244 14.0038 23.413C14.5001 23.9013 15.1714 24.1742 15.8698 24.1742C16.5681 24.1742 17.2394 23.9013 17.7357 23.413C18.2322 22.9244 18.5126 22.26 18.5126 21.5656C18.5126 20.8711 18.2322 20.2067 17.7357 19.7181C17.2394 19.2298 16.5681 18.9569 15.8698 18.9569C15.1714 18.9569 14.5001 19.2298 14.0038 19.7181Z" fill="#C38A19" stroke="#142E50"/>
<path d="M23.7642 6.2654L19.2227 0L2.52416 13.1268L1.59844 13.117V13.1311H0.869873V30H30.8699V13.1311H29.4956L26.7613 5.2603L23.7642 6.2654ZM26.477 13.1311H12.1513L22.8213 9.55204L24.9956 8.86744L26.477 13.1311ZM20.9413 7.21288L9.92702 10.9072L18.6499 4.04995L20.9413 7.21288ZM3.72702 24.6146V18.5137C4.33012 18.3042 4.87794 17.9646 5.33031 17.5197C5.78268 17.0748 6.12812 16.5359 6.3413 15.9426H25.3984C25.6115 16.5362 25.9568 17.0753 26.4092 17.5205C26.8616 17.9656 27.4095 18.3055 28.0127 18.5151V24.616C27.4095 24.8256 26.8616 25.1654 26.4092 25.6106C25.9568 26.0557 25.6115 26.5949 25.3984 27.1885H6.34416C6.13014 26.5948 5.78411 26.0557 5.33133 25.6104C4.87855 25.1651 4.33045 24.8249 3.72702 24.6146Z" fill="#142E50"/>
</svg>
