<svg width="30" height="30" viewBox="0 0 30 30" fill="none" xmlns="http://www.w3.org/2000/svg">
<path d="M18.8744 18.0103L18.8747 18.0102L20.0971 17.5991C20.0977 17.5989 20.0983 17.5987 20.0989 17.5985C20.2462 17.5499 20.397 17.5252 20.5553 17.5245H21.0348C22.1689 17.5245 23.2627 17.9879 24.0736 18.8225C24.8856 19.658 25.3466 20.7973 25.3466 21.991L25.3466 23.7211C25.3466 23.7215 25.3466 23.7218 25.3466 23.7221C25.3459 24.0244 25.2409 24.3127 25.0561 24.5363C24.9816 24.6264 24.8775 24.7752 24.8039 24.8803C24.7756 24.9207 24.7519 24.9546 24.7361 24.9763C24.6413 25.1061 24.5155 25.2649 24.3184 25.4646C23.918 25.87 23.1941 26.4735 21.7893 27.3319C20.5822 28.0695 18.0627 28.6049 15.1964 28.51C12.3555 28.4159 9.43135 27.7092 7.40437 26.2213C6.28188 25.3973 5.59717 24.8677 5.19197 24.5176C5.32214 24.283 5.39106 24.0153 5.39106 23.7228V21.991C5.39106 20.7973 5.85211 19.658 6.66404 18.8225C7.47502 17.9879 8.56873 17.5245 9.70289 17.5245H10.1837C10.338 17.5252 10.4915 17.5502 10.6392 17.5987L11.863 18.0102L11.8633 18.0103C14.1409 18.7755 16.5968 18.7755 18.8744 18.0103ZM4.81134 24.1471C4.81166 24.1472 4.81481 24.1512 4.81981 24.1591C4.81351 24.151 4.81101 24.147 4.81134 24.1471ZM12.2025 6.25356C13.0135 5.41896 14.1072 4.95557 15.2414 4.95557C16.3755 4.95557 17.4692 5.41896 18.2802 6.25356C19.0921 7.08913 19.5532 8.22837 19.5532 9.42207C19.5532 10.6158 19.0921 11.755 18.2802 12.5906C17.4692 13.4252 16.3755 13.8886 15.2414 13.8886C14.1072 13.8886 13.0135 13.4252 12.2025 12.5906C11.3906 11.755 10.9295 10.6158 10.9295 9.42207C10.9295 8.22836 11.3906 7.08913 12.2025 6.25356Z" fill="#C38A19" stroke="#142E50" stroke-width="2"/>
<path d="M28.5 15C28.5 22.4558 22.4558 28.5 15 28.5C7.54416 28.5 1.5 22.4558 1.5 15C1.5 7.54416 7.54416 1.5 15 1.5C22.4558 1.5 28.5 7.54416 28.5 15Z" stroke="#142E50" stroke-width="3"/>
</svg>
